<?xml version="1.0" encoding="UTF-8"?>
<svg id="Calque_2" data-name="Calque 2" xmlns="http://www.w3.org/2000/svg" xmlns:xlink="http://www.w3.org/1999/xlink" viewBox="0 0 135.4 183.94">
  <defs>
    <style>
      .cls-1 {
        fill: #ea998e;
      }

      .cls-2 {
        fill: #d3997b;
      }

      .cls-3 {
        fill: #f1ee87;
      }

      .cls-4 {
        fill: #fff;
      }

      .cls-5 {
        fill: #d70008;
      }

      .cls-6 {
        fill: #ffcba7;
      }

      .cls-7 {
        fill: #f2f2f2;
      }

      .cls-8 {
        fill: #317463;
      }

      .cls-9 {
        fill: #1d1d1b;
      }

      .cls-10 {
        clip-path: url(#clippath);
      }
    </style>
    <clipPath id="clippath">
      <rect class="cls-6" x="41.72" y="125.75" width="37.92" height="30.3"/>
    </clipPath>
  </defs>
  <g id="Assets">
    <g id="Elf">
      <path class="cls-5" d="M60.67,136.18s-49.44,26.75-49.88,28.66c-.44,1.9,15.66,19.1,49.88,19.1s50.32-17.2,49.88-19.1c-.44-1.9-49.88-28.66-49.88-28.66Z"/>
      <g>
        <rect class="cls-6" x="41.72" y="125.75" width="37.92" height="30.3"/>
        <g class="cls-10">
          <path class="cls-2" d="M32.63,131.49h58.9s-15.89,16.24-30.85,16.53c-14.96.29-28.05-16.53-28.05-16.53Z"/>
        </g>
      </g>
      <path class="cls-6" d="M23.24,89.79s-7.48-7.13-9.88-5.82-3.84,12.74.66,19.1c4.5,6.37,10.65,11.42,16.25,11.2,5.6-.22-7.03-24.48-7.03-24.48Z"/>
      <path class="cls-6" d="M98.56,89.79s7.48-7.13,9.88-5.82c2.35,1.29,3.84,12.74-.66,19.1s-10.65,11.42-16.25,11.2c-5.6-.22,7.03-24.48,7.03-24.48Z"/>
      <path class="cls-6" d="M19.32,74.89c.97-21.65,19.04-38.95,41.36-38.95s40.39,17.3,41.36,38.95l-.09,4.39c-.62,8.54-2.47,27.22-7.2,34.56-6.23,9.65-16.19,24.19-34.07,24.19s-27.84-14.53-34.07-24.19c-4.74-7.35-6.59-26.05-7.2-34.58l-.09-4.38Z"/>
      <circle class="cls-1" cx="37.04" cy="99.21" r="9.44"/>
      <circle class="cls-1" cx="84.31" cy="98.97" r="9.44"/>
      <circle class="cls-9" cx="42.96" cy="90.54" r="3.91"/>
      <circle class="cls-9" cx="76.33" cy="90.54" r="3.91"/>
      <path class="cls-9" d="M19.94,92.06c-1.97-2.27-5.9-4.25-6.33.25-.07,3,1.11,5.91,2.21,8.66-1.3-2.71-2.46-5.62-2.46-8.67.54-4.66,4.6-2.83,6.58-.24h0Z"/>
      <path class="cls-9" d="M102.3,91.57c1.98-2.59,6.03-4.42,6.58.24,0,3.06-1.16,5.96-2.46,8.67,1.11-2.75,2.28-5.66,2.21-8.66-.43-4.5-4.36-2.52-6.33-.25h0Z"/>
      <path class="cls-9" d="M57.24,104.26c-.74,4.41,6.38,5.29,7.78,1.6.17-.51.16-1.07.04-1.6.13.53.16,1.09,0,1.61-1.32,3.85-9.07,3.08-7.81-1.61h0Z"/>
      <circle class="cls-4" cx="44.3" cy="88.99" r=".9"/>
      <circle class="cls-4" cx="78.27" cy="88.99" r=".9"/>
      <path class="cls-9" d="M50.08,80.85c.65-.79-.26-3.34-1.09-3.94-.91-.67-7.32.28-9.74.56-3.51.4-6.87,1.67-9.92,3.44l-1.59.92s21.58-.04,22.34-.97Z"/>
      <path class="cls-9" d="M69.21,80.85c-.65-.79.26-3.34,1.09-3.94.91-.67,7.32.28,9.74.56,3.51.4,6.87,1.67,9.92,3.44l1.59.92s-21.58-.04-22.34-.97Z"/>
      <path class="cls-9" d="M59.65,121.96c-4.13,0-7.74-.52-9.82-1.29.77,1.34,4.85,2.36,9.82,2.36s9.06-1.03,9.82-2.36c-2.08.78-5.69,1.29-9.82,1.29Z"/>
      <path class="cls-6" d="M94.74,113.84c-6.23,9.65-8.74,23.96-34.07,24.19s-27.84-14.53-34.07-24.19"/>
      <path class="cls-9" d="M60.77,120.8c-4.3,0-8.07-.54-10.23-1.35.8,1.39,5.06,2.46,10.23,2.46s9.44-1.07,10.23-2.46c-2.17.81-5.93,1.35-10.23,1.35Z"/>
      <path class="cls-9" d="M46.48,72.49c8.02,0,20.02-3.73,22.02-5.73,6,7,8.26,7.57,11.13,8.29s10.47-4.14,10.47-4.14c0,0,3.4,15.86,7.4,14.86,0,5-2,16-2,16l4.04-2.79,1.66-11.48s3.62-2.62,5.46-3.68c.68-4.11-1.16-11.05-1.16-11.05l-21-19-42.78-2.41-22.4,11.62s-4.07,10.63-4.45,13.71c-.37,3.08,0,7.26,0,7.26,0,0,4.82,1.28,5.22,3.05s1.3,9.65,1.3,9.65l3.05,2.33-1.19-17.15s11.24-4.06,11.24-13.06c3,4,11.98,3.73,11.98,3.73Z"/>
      <path class="cls-5" d="M17.85,60.23S14.37,10.46,63.84,1.18c43.84-8.22,67.13,28.72,59.69,40.52-3.6,5.11-3.89-7.4-14.72-5.29-11.47,2.23-6.8,33.84-6.8,33.84l-43.87-12.6-40.28,2.58Z"/>
      <path class="cls-8" d="M102.01,83.63s19.2-14.29,25.82-15.01c1.99-3.57-14.57-6.08-25.82-3.4-2.65-13.93,9.27-18.76,9.93-21.61s-16.55-.71-27.81,9.29c-5.3-1.43-7.28-20.72-12.58-22.15s-14.57,17.15-19.2,17.15-23.18-20.72-28.41-17.23c-1.39,2.22,18.73,26.98,8.34,26.39S3.35,46.47.04,52.18c-1.05,1.82,17.88,15.72,19.2,18.58,2.65-.71,15.23-11.43,42.38-7.86,27.15,3.57,40.39,20.72,40.39,20.72Z"/>
      <circle class="cls-7" cx="124.22" cy="47.41" r="11.18"/>
      <circle class="cls-3" cx="61" cy="175.26" r="4"/>
      <path class="cls-8" d="M41.39,138.26s6.26,11.21,18.54,11.21,20.47-9.96,20.47-9.96c0,0,16.86,13.07,11.56,14.31s-7.71,1.24-10.11,1.24,2.41,7.47-.48,8.09c-2.89.62-6.26-5.6-10.11-5.6s-1.7,8.71-3.5,9.64-5.65-8.4-8.54-9.02-6.26,9.33-8.67,7.47-1.44-9.33-2.89-9.96-6.26,4.36-8.67,3.73.96-8.02,0-8.68-4.82,1.21-6.74-.03,8.19-11.82,9.15-12.44Z"/>
    </g>
  </g>
</svg>