<?xml version="1.0" encoding="UTF-8"?>
<svg id="Calque_2" data-name="Calque 2" xmlns="http://www.w3.org/2000/svg" xmlns:xlink="http://www.w3.org/1999/xlink" viewBox="0 0 99.78 116">
  <defs>
    <style>
      .cls-1 {
        fill: #b46e3b;
      }

      .cls-2 {
        fill: #fff;
      }

      .cls-3 {
        fill: #5c2e14;
      }

      .cls-4 {
        fill: #d70008;
      }

      .cls-5 {
        clip-path: url(#clippath);
      }
    </style>
    <clipPath id="clippath">
      <path class="cls-1" d="M49.89,68.24S.45,94.99,0,96.9c-.44,1.9,15.66,19.1,49.88,19.1s50.32-17.2,49.88-19.1c-.44-1.9-49.88-28.66-49.88-28.66Z"/>
    </clipPath>
  </defs>
  <g id="Assets">
    <g id="Gingerbread_man" data-name="Gingerbread man">
      <g>
        <path class="cls-1" d="M49.89,68.24S.45,94.99,0,96.9c-.44,1.9,15.66,19.1,49.88,19.1s50.32-17.2,49.88-19.1c-.44-1.9-49.88-28.66-49.88-28.66Z"/>
        <g class="cls-5">
          <path class="cls-3" d="M21.56,80s7.65,10.87,28.33,10.87,29.67-11.87,29.67-11.87l-29.67-7.53-28.33,8.53Z"/>
        </g>
      </g>
      <circle class="cls-1" cx="49.89" cy="43" r="43"/>
      <circle class="cls-4" cx="25.79" cy="48.86" r="9.44"/>
      <circle class="cls-4" cx="73.05" cy="48.62" r="9.44"/>
      <path class="cls-2" d="M49.91,68.27c-13.19,0-17.17-12.71-17.21-12.84-.24-.79.21-1.63,1-1.87.79-.24,1.63.21,1.87,1h0c.13.44,3.4,10.71,14.34,10.71s14.26-10.24,14.29-10.34c.24-.79,1.09-1.23,1.87-.99.79.24,1.24,1.08.99,1.87-.04.12-3.98,12.46-17.16,12.46Z"/>
      <circle class="cls-2" cx="34.2" cy="37.6" r="7.4"/>
      <circle class="cls-2" cx="66.33" cy="37.6" r="7.4"/>
      <g>
        <path class="cls-4" d="M47.17,94.48s-8.86-6.26-9.91-7.3-5.74,2.61-4.17,7.82c-1.53,2.81-.52,5.74.52,6.78-1.45,1.43-.4,6.02,1.04,5.74.51-.1,9.91-3.09,12.51-6.25,0-3.16,0-6.79,0-6.79Z"/>
        <path class="cls-4" d="M52.72,94.48s8.86-6.26,9.91-7.3c1.04-1.04,5.74,2.61,4.17,7.82,1.53,2.81.52,5.74-.52,6.78,1.45,1.43.4,6.02-1.04,5.74-.51-.1-9.91-3.09-12.51-6.25v-6.79Z"/>
        <circle class="cls-2" cx="50.22" cy="97.26" r="5.33"/>
      </g>
    </g>
  </g>
</svg>