<?xml version="1.0" encoding="UTF-8"?>
<svg id="Calque_2" data-name="Calque 2" xmlns="http://www.w3.org/2000/svg" viewBox="0 0 363 239.5">
  <defs>
    <style>
      .cls-1 {
        fill: #f1ee87;
      }

      .cls-2 {
        fill: #d70008;
      }

      .cls-3 {
        fill: #f2f2f2;
      }

      .cls-4 {
        fill: #317463;
      }

      .cls-5 {
        fill: #1d1d1b;
      }

      .cls-6 {
        fill: #003e29;
      }
    </style>
  </defs>
  <g id="Assets">
    <g>
      <ellipse class="cls-6" cx="181.5" cy="211.5" rx="181.5" ry="28"/>
      <g>
        <g>
          <polygon class="cls-1" points="241.25 46 241.25 155.9 132.25 176 106.25 39 183.25 27 192.79 30.12 207.7 35.01 241.25 46"/>
          <path class="cls-5" d="M109.25,42c5.97,3.66,17.88,11.07,23.81,14.79,7.93,4.95,15.82,9.95,23.7,14.96l-.38-.05c25.83-7.87,54-16.34,79.87-23.7-25.58,8.23-53.77,16.81-79.6,24.59,0,0-.2.06-.2.06l-.18-.11c-7.87-5.04-15.73-10.08-23.56-15.18-5.85-3.79-17.64-11.5-23.45-15.35h0Z"/>
          <polygon class="cls-5" points="161.25 145 156.01 72.17 157.01 72.11 161.25 145 161.25 145"/>
          <polygon class="cls-3" points="213.25 52 211.25 107.9 192.25 116 192.25 60 165.25 44 131.25 57 140.25 115 125.25 110 118.25 49 192.79 30.12 207.7 35.01 192.25 38 213.25 52"/>
          <path class="cls-3" d="M173.75,43.33s23.5-12.33,23.5-27.33S190.25,0,184.25,0s-9,7-11,14-3,20-3,20l3.5,9.33Z"/>
          <path class="cls-3" d="M152.36,12.69c-7.89-3.31-15.11.31-16.11,2.31s-4,5,9,16,24.24,12.33,24.24,12.33l4.26-5.74s-13.5-21.59-21.39-24.89ZM163.25,35c-2,1-15.08-8.67-13.54-13.34,1.25-3.78,15.54,12.34,13.54,13.34Z"/>
        </g>
        <g>
          <polygon class="cls-2" points="176.25 126.29 168.25 201 146.31 207.37 127.36 212.87 107.25 218.71 85.02 209.47 72.51 204.27 62.25 200 38.25 123 121.25 105 140.73 112.54 140.74 112.54 153.85 117.62 153.86 117.62 176.25 126.29"/>
          <path class="cls-5" d="M42.25,124c15.24,6.05,31.89,12.84,47.09,19.15-1.39.08,20.5-4.45,20.17-4.45,18.22-3.9,43.18-9.09,61.46-12.7-18.16,4.21-43.03,9.73-61.25,13.65,0,0-20.46,4.36-20.46,4.36l-.14.03-.13-.05c-15.18-6.37-31.71-13.41-46.74-19.99h0Z"/>
          <polygon class="cls-5" points="105.25 212.87 88.68 143.68 89.66 143.46 105.25 212.87 105.25 212.87"/>
          <polygon class="cls-1" points="153.85 117.62 140.74 112.54 140.73 112.54 52.25 129 72.51 204.27 85.02 209.47 64.25 133 105.35 125.95 105.36 125.95 130.25 134 127.36 212.87 146.31 207.37 146.25 128 125.12 122.55 153.85 117.62"/>
          <path class="cls-1" d="M103.05,121.63s4.2-28.63,10.2-35.63,17-1,18,6-8,25.89-13,28.95-15.2.68-15.2.68Z"/>
          <path class="cls-1" d="M94.25,101c-7-7-20.21-8.12-23-3-6,11,22,28,22,28l12-3s-4-15-11-22ZM83.25,104c2-2,13.72,10,11.86,12-1.86,2-13.86-10-11.86-12Z"/>
        </g>
        <path class="cls-1" d="M112.25,127s19-1,20,8-2.4,26.71,7.8,26.85c7.4-1.71,12.2-2.85,12.2-2.85,0,0-1-16-4-25s-14-15-21-15h-11.33"/>
        <g>
          <polygon class="cls-4" points="332.25 103 305.25 194 296.28 197.11 296.27 197.11 277.66 203.57 256.25 211 231.25 206.49 212.26 203.07 195.25 200 176.25 107 198.87 98.71 214.92 92.82 236.25 85 332.25 103"/>
          <path class="cls-5" d="M180.58,108.57c29.44,5.99,64.43,13.5,93.76,19.98,7.66-3.63,18.48-8.02,27.2-11.85,9.16-3.96,18.37-7.82,27.56-11.71-9.1,4.11-18.18,8.25-27.3,12.29-9.21,4.03-18.4,8.37-27.66,12.15-29.36-6.32-64.32-14.07-93.57-20.88h0Z"/>
          <polygon class="cls-5" points="258.18 206.49 273.76 128.9 274.74 129.1 258.18 206.49 258.18 206.49"/>
          <polygon class="cls-3" points="270.17 101.92 270.16 101.92 282.49 96.5 250.25 94 243.65 97.55 214.92 92.82 198.87 98.71 230.53 104.62 211.25 115 212.26 203.07 231.25 206.49 231.25 119 254.02 109 302.25 118 277.66 203.57 296.27 197.11 296.28 197.11 319.25 110 270.17 101.92"/>
          <path class="cls-3" d="M278.25,74c-13,6-20.07,27.5-20.07,27.5l15.07,5.5s22-14,23-24c.5-4.98-5-15-18-9ZM267.25,100c4-11,11-17,17-17s-17,17-17,17Z"/>
          <path class="cls-3" d="M243.25,101s-4-7-9-13-6-16-4-22,16-6,19-4,12.24,37.5,12.24,37.5l-18.24,1.5Z"/>
        </g>
        <g>
          <polygon class="cls-3" points="221.25 170 218.25 225 208.81 228.35 199.75 231.56 187.75 235.82 172.2 233.07 159.23 230.77 149.25 229 139.25 174 151.41 168.83 151.42 168.83 162.9 163.97 162.91 163.97 172.25 160 192.72 164.18 206.8 167.05 221.25 170"/>
          <path class="cls-5" d="M143.25,175c14.31,2.24,30.56,4.89,43.83,7.56,10.54-3.97,21.09-7.87,31.73-11.56-10.44,4.33-20.97,8.44-31.51,12.49-14.72-2.63-29.42-5.4-44.05-8.49h0Z"/>
          <polygon class="cls-5" points="187.25 234 186.75 183 187.75 183 187.25 234 187.25 234"/>
          <polygon class="cls-6" points="194.65 171.1 206.8 167.05 192.72 164.18 181.09 168.05 181.08 168.05 162.91 163.97 162.9 163.97 151.42 168.83 168.5 172.25 160.25 175 159.23 230.77 172.2 233.07 172.2 178.59 182.7 175.09 199.75 178.5 199.75 231.56 208.81 228.35 209.75 174.5 194.65 171.1"/>
          <path class="cls-6" d="M184.25,171s12-13,18-18,12.04,1.61,9.52,7.31c-2.52,5.69-17.52,13.69-17.52,13.69l-10-3Z"/>
          <path class="cls-6" d="M178.25,172s-9.04-17.01-6.97-22.35c2.97-7.65,9.97-6.65,12.97-4.65s5,23,3,25-9,2-9,2Z"/>
          <path class="cls-6" d="M169.25,171s-10,5-11,7-4,22-4,22l12-1,3-20.52,7.95-4.48"/>
        </g>
      </g>
    </g>
  </g>
</svg>