<?xml version="1.0" encoding="UTF-8"?>
<svg id="Calque_2" data-name="Calque 2" xmlns="http://www.w3.org/2000/svg" xmlns:xlink="http://www.w3.org/1999/xlink" viewBox="0 0 158.72 192.4">
  <defs>
    <style>
      .cls-1 {
        fill: #8f9f95;
      }

      .cls-2 {
        fill: #fff;
      }

      .cls-3 {
        fill: #d70008;
      }

      .cls-4 {
        fill: #6e7a73;
      }

      .cls-5 {
        fill: #f5edbc;
      }

      .cls-6 {
        fill: #1d1d1b;
      }

      .cls-7 {
        clip-path: url(#clippath);
      }
    </style>
    <clipPath id="clippath">
      <rect class="cls-1" x="60.1" y="134.21" width="37.92" height="30.3"/>
    </clipPath>
  </defs>
  <g id="Assets">
    <g id="Krampus">
      <path class="cls-3" d="M56.94,64.22s-17.12-17.12-17.12-23.55,8.56-12.84,10.7-21.41S52.66,0,50.52,0s2.14,8.56-12.84,19.27-14.33,16.03-14.66,24.07,10.38,23.02,25.36,25.16c8.56,0,8.56-4.28,8.56-4.28Z"/>
      <path class="cls-3" d="M99.01,64.22s17.13-17.12,17.13-23.55c0-6.42-8.56-12.84-10.7-21.41-2.14-8.56-2.14-19.27,0-19.27s-2.14,8.56,12.84,19.27c14.98,10.7,14.33,16.03,14.66,24.07.33,8.04-10.38,23.02-25.36,25.16-8.56,0-8.56-4.28-8.56-4.28Z"/>
      <path class="cls-1" d="M79.06,144.64s-49.44,26.75-49.88,28.66c-.44,1.9,15.66,19.1,49.88,19.1s50.32-17.2,49.88-19.1c-.44-1.9-49.88-28.66-49.88-28.66Z"/>
      <g>
        <rect class="cls-1" x="60.1" y="134.21" width="37.92" height="30.3"/>
        <g class="cls-7">
          <path class="cls-4" d="M51.01,139.96h58.9s-15.89,16.24-30.85,16.53c-14.96.29-28.05-16.53-28.05-16.53Z"/>
        </g>
      </g>
      <path class="cls-1" d="M79.06,44.4c-22.32,0-40.39,17.3-41.36,38.95l.09,4.38c.61,8.53,2.46,27.23,7.2,34.58,5.13,7.96,18.39,21.94,28.3,26.61.03,1.18.2,3.93,1.19,3.93.71,0,1.27-2.36,1.27-2.36l2.3,5.36c.08.2.38.2.46,0l2.3-5.36s.82,1.25,1.27,1.18c.66-.1,1.25-1.23,1.68-2.32,9.87-4.17,24.07-18.82,29.37-27.04,4.73-7.34,6.58-26.03,7.2-34.56l.09-4.39c-.97-21.65-19.04-38.95-41.36-38.95Z"/>
      <circle class="cls-6" cx="61.35" cy="99" r="3.91"/>
      <circle class="cls-6" cx="94.71" cy="99" r="3.91"/>
      <g>
        <path class="cls-1" d="M118.29,95.82s38.18-20.06,40.3-18.22c.8.69-2.36,3.64-1.18,3.4,5-1-12.23,21.14-18.18,27.04-6.95,6.9-15.65,11.81-22.53,10.32-6.88-1.49,1.6-22.55,1.6-22.55Z"/>
        <path class="cls-1" d="M40.43,96.82S2.25,76.76.13,78.6c-.8.69,2.36,3.64,1.18,3.4-5-1,12.23,21.14,18.18,27.04,6.95,6.9,15.65,11.81,22.53,10.32,6.88-1.49-1.6-22.55-1.6-22.55Z"/>
        <path class="cls-6" d="M142.62,87.49c2.21-1.11,6.35-2.53,7.58.59,1.14,4.06-4.37,9.13-7.11,11.66,2.6-2.71,7.86-7.52,6.91-11.59-1.17-3-5.17-1.59-7.39-.66h0Z"/>
      </g>
      <path class="cls-6" d="M76.38,99.95c-3.99,3.77-6.45,9.39-5.73,14.9.23,2.03,1.19,4.06,2.98,5.13,3.06,1.72,6.97.95,9.77-.98-2.23,1.62-5.14,2.47-7.9,1.87-2.89-.5-4.81-3.18-5.09-5.99-.72-5.57,1.81-11.27,5.96-14.94h0Z"/>
      <circle class="cls-2" cx="62.68" cy="97.45" r=".9"/>
      <circle class="cls-2" cx="96.66" cy="97.45" r=".9"/>
      <path class="cls-6" d="M15.31,87.49c-2.21-.94-6.22-2.34-7.39.66-.95,4.07,4.3,8.87,6.91,11.59-2.73-2.52-8.25-7.6-7.11-11.66,1.24-3.12,5.37-1.7,7.58-.59h0Z"/>
      <path class="cls-3" d="M45.23,91.84l-.5-1.06c-.49-1.04-.06-2.28.97-2.81,2.02-1.03,5.49-2.47,9.2-2.47,5.78,0,11.56,6.35,17.34,6.35,2.89,0,2.89,4.24,0,4.24s-8.67-2.12-14.45-4.24c-3.76-1.38-7.51-.07-9.68,1.02-1.07.53-2.37.05-2.87-1.03Z"/>
      <path class="cls-3" d="M111.7,91.84l.5-1.06c.49-1.04.06-2.28-.97-2.81-2.02-1.03-5.49-2.47-9.2-2.47-5.78,0-11.56,6.35-17.34,6.35-2.89,0-2.89,4.24,0,4.24s8.67-2.12,14.45-4.24c3.76-1.38,7.51-.07,9.68,1.02,1.07.53,2.37.05,2.87-1.03Z"/>
      <path class="cls-5" d="M63.4,124s5.62,4.2,14.98,4.2,16.55-4.2,16.55-4.2c0,0-3.45,14-16.55,14s-14.98-14-14.98-14Z"/>
    </g>
  </g>
</svg>