<?xml version="1.0" encoding="UTF-8"?>
<svg id="Calque_2" data-name="Calque 2" xmlns="http://www.w3.org/2000/svg" xmlns:xlink="http://www.w3.org/1999/xlink" viewBox="0 0 103.21 177.84">
  <defs>
    <style>
      .cls-1 {
        fill: #f1ddd4;
      }

      .cls-2 {
        fill: #ea998e;
      }

      .cls-3 {
        fill: #d3997b;
      }

      .cls-4 {
        fill: #f4ab7f;
      }

      .cls-5 {
        fill: #fff;
      }

      .cls-6 {
        fill: #ffcba7;
      }

      .cls-7 {
        fill: #f2f2f2;
      }

      .cls-8 {
        fill: #1d1d1b;
      }

      .cls-9 {
        clip-path: url(#clippath);
      }
    </style>
    <clipPath id="clippath">
      <rect class="cls-6" x="31.87" y="119.65" width="37.92" height="30.3"/>
    </clipPath>
  </defs>
  <g id="Assets">
    <g id="Sugar_plum_fairy" data-name="Sugar plum fairy">
      <path class="cls-6" d="M50.83,130.08S1.39,156.83.95,158.74c-.44,1.9,15.66,19.1,49.88,19.1s50.32-17.2,49.88-19.1c-.44-1.9-49.88-28.66-49.88-28.66Z"/>
      <g>
        <rect class="cls-6" x="31.87" y="119.65" width="37.92" height="30.3"/>
        <g class="cls-9">
          <path class="cls-3" d="M22.78,125.4h58.9s-15.89,16.24-30.85,16.53c-14.96.29-28.05-16.53-28.05-16.53Z"/>
        </g>
      </g>
      <path class="cls-6" d="M13.39,83.69s-4.28-6.7-9.88-5.82c-5.6.88-3.84,12.74.66,19.1,4.5,6.37,10.65,11.42,16.25,11.2,5.6-.22-7.03-24.48-7.03-24.48Z"/>
      <path class="cls-6" d="M89.82,83.69s4.28-6.7,9.88-5.82c5.6.88,3.84,12.74-.66,19.1-4.5,6.37-10.65,11.42-16.25,11.2-5.6-.22,7.03-24.48,7.03-24.48Z"/>
      <path class="cls-6" d="M9.48,68.79c.97-21.65,19.04-38.95,41.36-38.95s40.39,17.3,41.36,38.95l-.09,4.39c-.62,8.54-2.47,27.22-7.2,34.56-6.23,9.65-16.19,28.19-34.07,28.19s-27.84-18.53-34.07-28.19c-4.74-7.35-6.59-26.05-7.2-34.58l-.09-4.38Z"/>
      <circle class="cls-2" cx="27.2" cy="93.11" r="9.44"/>
      <circle class="cls-2" cx="74.46" cy="92.87" r="9.44"/>
      <circle class="cls-8" cx="33.12" cy="84.44" r="3.91"/>
      <circle class="cls-8" cx="66.49" cy="84.44" r="3.91"/>
      <path class="cls-8" d="M10.1,85.97c-1.97-2.27-5.9-4.25-6.33.25-.07,3,1.11,5.91,2.21,8.66-1.3-2.71-2.46-5.62-2.46-8.67.54-4.66,4.6-2.83,6.58-.24h0Z"/>
      <path class="cls-8" d="M93.45,85.47c1.98-2.59,6.03-4.42,6.58.24,0,3.06-1.16,5.96-2.46,8.67,1.11-2.75,2.28-5.66,2.21-8.66-.43-4.5-4.36-2.52-6.33-.25h0Z"/>
      <path class="cls-8" d="M48.15,83.38c-1.03,3.64-2.75,8.67-3.37,12.33-.28,2.38-.52,5.87,2.03,7.07,1.24.39,2.65.23,3.93.04.24-.07.55-.11.68-.36-.12.25-.43.31-.67.39-11.49,2.74-4.2-14.26-2.6-19.48h0Z"/>
      <circle class="cls-5" cx="34.46" cy="82.89" r=".9"/>
      <circle class="cls-5" cx="68.43" cy="82.89" r=".9"/>
      <path class="cls-4" d="M40.24,74.75c.65-.79-.26-3.34-1.09-3.94-.91-.67-7.32.28-9.74.56-3.51.4-6.87,1.67-9.92,3.44l-1.59.92s21.58-.04,22.34-.97Z"/>
      <path class="cls-4" d="M59.37,74.75c-.65-.79.26-3.34,1.09-3.94.91-.67,7.32.28,9.74.56,3.51.4,6.87,1.67,9.92,3.44l1.59.92s-21.58-.04-22.34-.97Z"/>
      <path class="cls-8" d="M49.8,115.86c-4.13,0-7.74-.52-9.82-1.29.77,1.34,4.85,2.36,9.82,2.36s9.06-1.03,9.82-2.36c-2.08.78-5.69,1.29-9.82,1.29Z"/>
      <path class="cls-4" d="M51.24,22.01h0c-.12,0-.24,0-.37,0-.12,0-.24,0-.37,0h0C2.29,22.39,4.86,64.01,6.44,70.5s5.5,11.45,5.5,11.45l3.71,11.2,3.27,2.73s-.25-8.51.27-19.15c.52-10.64,6.19-20.21,9.05-23.24,2.86-3.03,15.85.31,22.22.31s20.18-3.34,23.04-.31c2.86,3.03,8.53,12.61,9.05,23.24.52,10.64.27,19.15.27,19.15l3.27-2.73,3.71-11.2s3.16-1.8,5.64-8.45c2.34-6.26,4.01-51.11-44.21-51.49Z"/>
      <path class="cls-4" d="M62.27,3.77c-3.17-2.36-7.08-3.77-11.33-3.77-3.46,0-6.69.94-9.49,2.56-8.32,2.02-14.51,9.5-14.51,18.44,0,10.49,8.51,19,19,19,1.33,0,2.62-.14,3.87-.4,2.2.89,4.61,1.4,7.13,1.4,10.49,0,19-8.51,19-19,0-8.64-5.78-15.92-13.67-18.23Z"/>
      <path class="cls-1" d="M9.48,153.13s14.47,13.87,20.47,16.87,35,3,40,0,22.34-16.87,22.34-16.87l8.43,5.6s-12.99,18.96-49.88,19.1c-40.89.16-49.88-19.1-49.88-19.1l8.53-5.6Z"/>
      <g>
        <path class="cls-7" d="M78.07,30.22c-1.21-1-2.58-1.33-3.98-1.26.98-3.72.71-7.56-3.57-9.13-4.17-1.53-7.86-.74-10.93.98-2.09-2.22-5.04-3.82-9.21-3.82s-6.91,1.47-8.83,3.53c-2.96-1.52-6.47-2.14-10.4-.7-4.38,1.6-4.56,5.57-3.5,9.37-1.4,0-2.69.38-3.71,1.34-4.01,3.74,1.09,11.13,2.7,13.25-.78,1.64-1.84,3.93-2.06,4.36-.31.63.31.94.63.94,1,0,1.89-4.09,3.46-6.61,1.57-2.52,9.13-10.07,21.71-10.07s20.14,5.66,23.28,10.7c3.15,5.03,3.15,5.98,3.46,6.29s1.26.31,1.26-.63c0-.64,0,.11-1.52-2.88,1.36-2.58,5.79-11.91,1.21-15.69ZM31.81,24.87c2.15-1.7,4.72-1.28,7.12-.04-1.28,3.25-1.46,6.61-1.46,8.08-1.83-1.17-4.98-2.95-7.98-3.52,0-1.58.62-3.16,2.33-4.52ZM32.72,36.21c-.68-.93-2-2.88-3-5.13,2.31.77,4.67,2.43,5.8,3.3-1.04.58-1.97,1.2-2.79,1.83ZM39.98,25.43c2.8,1.74,5.24,4.38,6.33,5.64-2.79.31-5.21.91-7.3,1.7-.06-1.17-.1-4.29.97-7.34ZM40.5,24.16c.28-.6.61-1.18,1-1.74,3.91,2.68,7.03,6.88,8.11,8.44-.51,0-1.01.03-1.51.06-1.28-1.55-4.2-4.82-7.61-6.76ZM61.23,25.46c1.28,2.93,1.62,5.97,1.7,7.51-2.26-.87-4.91-1.54-8.01-1.88,1.07-1.25,3.5-3.88,6.3-5.63ZM53.13,30.94c-.36-.02-.72-.04-1.09-.06,1.03-1.49,3.95-5.43,7.65-8.13.35.48.66.97.94,1.48-3.37,1.96-6.24,5.18-7.5,6.71ZM64.56,33.65c-.13-1.62-.61-5.31-2.28-8.8,2.41-1.26,4.99-1.7,7.16.01,1.73,1.36,2.34,2.96,2.33,4.55-3.02.99-5.81,3.29-6.98,4.35-.08-.04-.16-.07-.24-.11ZM71.6,30.93c-.48,2.14-1.82,4.1-2.72,5.23-.84-.61-1.76-1.2-2.81-1.76,1.01-.86,3.17-2.56,5.52-3.47ZM69.89,20.78c3.72,1.72,3.83,5.12,2.82,8.34-.11-1.87-.91-3.71-2.94-5.19-2.58-1.88-5.45-1.52-8.09-.25-.31-.54-.65-1.07-1.02-1.58,2.85-1.83,6.08-2.78,9.24-1.32ZM50.38,18.26c3.72,0,6.35,1.31,8.19,3.18-3.68,2.42-6.35,6.07-7.74,8.26-1.44-2.28-4.3-6.17-8.24-8.58,1.69-1.69,4.17-2.86,7.78-2.86ZM31.78,20.78c2.97-1.38,6.02-.61,8.75,1.02-.41.58-.76,1.19-1.07,1.82-2.61-1.22-5.42-1.54-7.97.31-1.66,1.21-2.5,2.66-2.81,4.17-.67-2.9-.23-5.78,3.09-7.32ZM27.41,42.17c-.07.14-.19.4-.35.74-1.19-1.82-4.82-7.93-2.16-11.12.82-.98,1.98-1.24,3.24-1.08.37,1.03.81,2.01,1.24,2.91.61,1.57,1.41,2.91,1.97,3.73-2.65,2.37-3.8,4.55-3.94,4.82ZM70.25,37.23c.71-1.11,2.36-3.83,3.39-6.84,1.23-.16,2.43.02,3.48.76,3.61,2.58.25,10.43-1.08,13.19-.42-.77-.81-1.42-1.12-1.86-.65-.91-2.05-3.05-4.67-5.25Z"/>
        <path class="cls-1" d="M50.84,32.42c1.11,0,3.61,3.72,0,3.74s-1.11-3.74,0-3.74Z"/>
      </g>
    </g>
  </g>
</svg>