<?xml version="1.0" encoding="UTF-8"?>
<svg id="Calque_2" data-name="Calque 2" xmlns="http://www.w3.org/2000/svg" xmlns:xlink="http://www.w3.org/1999/xlink" viewBox="0 0 249.89 205.45">
  <defs>
    <style>
      .cls-1 {
        fill: #b46e3b;
      }

      .cls-2 {
        fill: #fff;
      }

      .cls-3 {
        fill: #552203;
      }

      .cls-4 {
        fill: #d70008;
      }

      .cls-5 {
        fill: #844c1d;
      }

      .cls-6 {
        fill: #f3af8c;
      }

      .cls-7 {
        fill: #f2f2f2;
      }

      .cls-8 {
        fill: #fbca7e;
      }

      .cls-9 {
        fill: #1d1d1b;
      }

      .cls-10 {
        clip-path: url(#clippath);
      }

      .cls-11 {
        fill: #c8814b;
      }
    </style>
    <clipPath id="clippath">
      <path class="cls-1" d="M159.96,193.16c.44,1.9-.65,12.29-34.87,12.29s-35.57-10.39-35.13-12.29l3.17-35.72,64.83-.28,2,36Z"/>
    </clipPath>
  </defs>
  <g id="Assets">
    <g id="Deer">
      <path class="cls-3" d="M140,79.1l6.31-10.35c.74-1.21,1.07-2.62.95-4.03-.55-6.4-1.81-24.87,1.86-25.34,4.44-.57,4.49,17.46,8.27,18.78s17.37-6.99,19.68-9.19-4.22-32.02-2-32.3,5.11,18.73,8.27,18.78,9.52-24.21,13.3-22.9-10.23,29.26-8.05,32.14c2.17,2.88,12.74-6.14,20.43-12.99,7.69-6.85,7.03-4.96,8.68-9.68S227.81-.91,230.64.07s-5.28,15.1-2.45,16.09S246.5-2.86,249.61.35c3.12,3.21-20.89,23.42-28.91,31.21-8.02,7.79-40.53,25.03-47.23,29.05s-17.17,6.71-19.44,10.16c-2.26,3.45-6.51,12.56-6.51,12.56l-7.53-4.22Z"/>
      <path class="cls-3" d="M109.89,79.1l-6.31-10.35c-.74-1.21-1.07-2.62-.95-4.03.55-6.4,1.81-24.87-1.86-25.34-4.44-.57-4.49,17.46-8.27,18.78s-17.37-6.99-19.68-9.19,4.22-32.02,2-32.3-5.11,18.73-8.27,18.78-9.52-24.21-13.3-22.9c-3.78,1.32,10.23,29.26,8.05,32.14-2.17,2.88-12.74-6.14-20.43-12.99-7.69-6.85-7.03-4.96-8.68-9.68C30.57,17.31,22.08-.91,19.25.07s5.28,15.1,2.45,16.09S3.39-2.86.28.35c-3.12,3.21,20.89,23.42,28.91,31.21s40.53,25.03,47.23,29.05c6.7,4.01,17.17,6.71,19.44,10.16s6.51,12.56,6.51,12.56l7.53-4.22Z"/>
      <g>
        <path class="cls-1" d="M159.96,193.16c.44,1.9-.65,12.29-34.87,12.29s-35.57-10.39-35.13-12.29l3.17-35.72,64.83-.28,2,36Z"/>
        <g class="cls-10">
          <path class="cls-5" d="M89.85,165.76s7.79,15.4,35.45,15.4,38.66-15.72,38.66-15.72l-2.57-10.54-64.34,2.89-7.2,7.98Z"/>
        </g>
      </g>
      <path class="cls-11" d="M165.96,120.16c0,7.91,2.79,15.38,0,22-6.74,16.01-24.98,27-41,27s-33.26-9.99-40-26c-2.79-6.62-1-15.09-1-23,0-27.06,18.36-49,41-49s41,21.94,41,49Z"/>
      <g>
        <path class="cls-11" d="M180.11,98.26c-8.6,4.34-17.85,5.05-22.73,2.15-.92-.56-1.71-1.25-2.28-2.08-3.59-5.14,1.8-13.48,12.03-18.64,9.71-4.91,25.08-7.4,29.2-3.04"/>
        <path class="cls-6" d="M196.32,76.65c-4.45.55-14.26,4.11-19.29,6.21-11.56,4.83-17.44,13.64-17.44,13.64,1.4,2.8,2.8,5.59,4.19,5.59,5.59,0,10.97-.24,16.31-3.83,5.61-3.77,19.05-16.59,16.22-21.61Z"/>
      </g>
      <g>
        <path class="cls-11" d="M69.34,98.26c8.6,4.34,17.85,5.05,22.73,2.15.92-.56,1.71-1.25,2.28-2.08,3.59-5.14-1.8-13.48-12.03-18.64-9.71-4.91-25.08-7.4-29.2-3.04"/>
        <path class="cls-6" d="M53.12,76.65c4.45.55,14.26,4.11,19.29,6.21,11.56,4.83,17.44,13.64,17.44,13.64-1.4,2.8-2.8,5.59-4.19,5.59-5.59,0-10.97-.24-16.31-3.83-5.61-3.77-19.05-16.59-16.22-21.61Z"/>
      </g>
      <ellipse class="cls-8" cx="124.96" cy="144.66" rx="44" ry="28.5"/>
      <ellipse class="cls-4" cx="124.96" cy="131.66" rx="17" ry="10.5"/>
      <ellipse class="cls-7" cx="121.29" cy="127.48" rx="4.33" ry="2.68"/>
      <g>
        <circle class="cls-9" cx="108.48" cy="113.16" r="4.03"/>
        <circle class="cls-2" cx="109.85" cy="111.56" r=".93"/>
      </g>
      <g>
        <circle class="cls-9" cx="141.48" cy="113.16" r="4.03"/>
        <circle class="cls-2" cx="142.85" cy="111.56" r=".93"/>
      </g>
      <path class="cls-9" d="M124.65,155.14c-8.87,0-16.64-1.11-21.11-2.78,1.65,2.88,10.43,5.08,21.11,5.08s19.46-2.2,21.11-5.08c-4.47,1.67-12.23,2.78-21.11,2.78Z"/>
    </g>
  </g>
</svg>