<?xml version="1.0" encoding="UTF-8"?>
<svg xmlns="http://www.w3.org/2000/svg" viewBox="0 0 644.32 112.32">
  <defs>
    <style>
      .cls-1 {
        fill: #f1ee87;
      }

      .cls-2, .cls-3 {
        fill: #d70008;
      }

      .cls-2, .cls-4, .cls-5 {
        mix-blend-mode: screen;
      }

      .cls-6 {
        fill: #f2f2f2;
      }

      .cls-7 {
        isolation: isolate;
      }

      .cls-8 {
        fill: none;
        stroke: #003e29;
        stroke-linecap: round;
        stroke-linejoin: round;
      }

      .cls-4, .cls-9 {
        fill: #317463;
      }

      .cls-5 {
        fill: #f3bfb0;
      }

      .cls-10 {
        fill: #003e29;
      }
    </style>
  </defs>
  <g class="cls-7">
    <g id="Calque_2" data-name="Calque 2">
      <g id="Assets">
        <g>
          <g>
            <path class="cls-8" d="M2.82,9.36c36.94,27.82,149.99,51.5,314.51,53.91,171.27,2.51,290-24.15,326.49-51.14"/>
            <g>
              <g>
                <circle class="cls-2" cx="409.76" cy="77.56" r="10.75"/>
                <path class="cls-10" d="M417.12,65.84c-.85-1.71-3.41-1.71-3.41-1.71,0,0-.49-3.82-3.9-3.82s-3.98,3.82-3.98,3.82c0,0-2.56,0-3.41,1.71s-1.71,5.97-1.71,5.97h18.12s-.85-4.27-1.71-5.97Z"/>
              </g>
              <g>
                <circle class="cls-1" cx="234.05" cy="74.48" r="10.75"/>
                <path class="cls-10" d="M243.8,64.67c-.46-1.85-2.95-2.42-2.95-2.42,0,0,.36-3.84-2.97-4.59s-4.72,2.85-4.72,2.85c0,0-2.5-.56-3.7.91-1.21,1.48-2.98,5.45-2.98,5.45l8.74,1.97.19.04,8.74,1.97s.11-4.35-.35-6.2Z"/>
              </g>
              <g>
                <circle class="cls-5" cx="152.55" cy="67.33" r="10.75"/>
                <path class="cls-10" d="M163.75,59.2c-.15-1.9-2.53-2.86-2.53-2.86,0,0,.97-3.73-2.19-5s-5.12,2.06-5.12,2.06c0,0-2.37-.96-3.8.31s-3.81,4.9-3.81,4.9l8.31,3.34.19.07,8.31,3.34s.8-4.28.65-6.18Z"/>
              </g>
              <g>
                <circle class="cls-2" cx="83.03" cy="55.06" r="10.75"/>
                <path class="cls-10" d="M95.5,49.07c.19-1.9-1.98-3.26-1.98-3.26,0,0,1.63-3.49-1.26-5.31-2.89-1.82-5.4,1.11-5.4,1.11,0,0-2.16-1.37-3.8-.38-1.63.99-4.63,4.14-4.63,4.14l7.58,4.78.17.11,7.58,4.78s1.56-4.06,1.74-5.96Z"/>
              </g>
              <g>
                <circle class="cls-4" cx="15.03" cy="32.06" r="10.75"/>
                <path class="cls-10" d="M27.5,26.07c.19-1.9-1.98-3.26-1.98-3.26,0,0,1.63-3.49-1.26-5.31-2.89-1.82-5.4,1.11-5.4,1.11,0,0-2.16-1.37-3.8-.38-1.63.99-4.63,4.14-4.63,4.14l7.58,4.78.17.11,7.58,4.78s1.56-4.06,1.74-5.96Z"/>
              </g>
              <g>
                <circle class="cls-5" cx="341.28" cy="78.52" r="10.75"/>
                <path class="cls-10" d="M346.69,65.79c-1.11-1.55-3.64-1.15-3.64-1.15,0,0-1.08-3.7-4.45-3.16s-3.33,4.4-3.33,4.4c0,0-2.53.4-3.1,2.22-.57,1.82-.75,6.17-.75,6.17l8.85-1.41.2-.03,8.85-1.41s-1.51-4.08-2.62-5.63Z"/>
              </g>
              <g>
                <circle class="cls-1" cx="487.34" cy="70.51" r="10.75"/>
                <path class="cls-10" d="M492.51,57.68c-1.14-1.53-3.66-1.08-3.66-1.08,0,0-1.15-3.68-4.51-3.08s-3.24,4.46-3.24,4.46c0,0-2.52.45-3.06,2.28-.54,1.83-.63,6.18-.63,6.18l8.82-1.58.2-.04,8.82-1.58s-1.59-4.05-2.73-5.58Z"/>
              </g>
              <g>
                <circle class="cls-4" cx="561.44" cy="58.09" r="10.75"/>
                <path class="cls-10" d="M561.68,44.26c-1.61-1.02-3.8.3-3.8.3,0,0-2.39-3.02-5.32-1.26-2.92,1.76-1.43,5.33-1.43,5.33,0,0-2.19,1.32-2.04,3.22s1.62,6,1.62,6l7.67-4.63.17-.1,7.67-4.63s-2.93-3.21-4.55-4.23Z"/>
              </g>
              <g>
                <circle class="cls-2" cx="632.85" cy="33.8" r="10.75"/>
                <path class="cls-10" d="M630.96,20.1c-1.75-.76-3.71.88-3.71.88,0,0-2.83-2.61-5.45-.42s-.59,5.48-.59,5.48c0,0-1.96,1.64-1.52,3.5.44,1.86,2.53,5.67,2.53,5.67l6.87-5.75.15-.13,6.87-5.75s-3.39-2.72-5.14-3.48Z"/>
              </g>
            </g>
          </g>
          <g>
            <path class="cls-8" d="M.5.5c41.75,19.88,129.4,46.83,293.82,52.81,163.1,5.93,286-9,340-45"/>
            <g>
              <g>
                <path class="cls-10" d="M172.11,51.36s-4.64,4.71-8.39,5.13c.7,5.25-.5,11.22-2.96,13.93,2.16.66,7.72,7.17,7.97,12.33,3.33-5.26,9.36-8.05,12.33-7.97-1.26-4.2.92-11.08,2.99-13.99-4.87-3.12-7.28-15.49-7.28-15.49l-4.66,6.05Z"/>
                <path class="cls-9" d="M170.64,42.42s-6.62.01-9.55-2.36c-3.24,4.19-8.33,7.54-11.98,7.69,1.05,2,.33,10.53-3.17,14.34,6.08-1.33,12.31.99,14.34,3.17,2.1-3.85,8.53-7.13,12.05-7.71-1.2-5.65,5.89-16.06,5.89-16.06l-7.58.94Z"/>
                <path class="cls-9" d="M178.11,47.9s-.76,6.57-3.46,9.21c3.78,3.7,6.51,9.16,6.23,12.8,2.11-.81,10.5.91,13.87,4.83-.61-6.19,2.43-12.11,4.83-13.87-3.58-2.54-6.09-9.3-6.25-12.87-5.75.53-15.26-7.74-15.26-7.74l.04,7.64Z"/>
                <circle class="cls-3" cx="172.79" cy="40.31" r="4.88"/>
                <circle class="cls-3" cx="181.75" cy="40.91" r="4.88"/>
                <circle class="cls-3" cx="177.55" cy="48.62" r="4.88"/>
                <circle class="cls-6" cx="171.59" cy="38.59" r="1.55"/>
                <circle class="cls-6" cx="180.55" cy="39.18" r="1.55"/>
                <circle class="cls-6" cx="176.77" cy="46.76" r="1.55"/>
              </g>
              <g>
                <path class="cls-10" d="M447.51,62.51s-3.78,5.43-7.41,6.47c1.58,5.05,1.4,11.15-.57,14.23,2.24.29,8.82,5.77,9.93,10.81,2.4-5.74,7.87-9.51,10.81-9.93-1.95-3.93-.96-11.08.59-14.3-5.32-2.25-9.78-14.04-9.78-14.04l-3.58,6.75Z"/>
                <path class="cls-9" d="M444.56,53.95s-6.52,1.13-9.81-.72c-2.48,4.67-6.94,8.83-10.52,9.6,1.37,1.79,2.1,10.32-.71,14.66,5.77-2.33,12.3-1.09,14.66.71,1.42-4.15,7.2-8.47,10.58-9.63-2.14-5.37,3.1-16.83,3.1-16.83l-7.31,2.2Z"/>
                <path class="cls-9" d="M452.84,58.1s.35,6.61-1.86,9.66c4.35,3.01,7.96,7.93,8.3,11.57,1.94-1.15,10.5-.88,14.48,2.42-1.64-6,.36-12.34,2.42-14.48-3.96-1.9-7.57-8.15-8.32-11.64-5.58,1.49-16.35-5.06-16.35-5.06l1.33,7.52Z"/>
                <circle class="cls-3" cx="446.32" cy="51.51" r="4.88"/>
                <circle class="cls-3" cx="455.25" cy="50.59" r="4.88"/>
                <circle class="cls-3" cx="452.41" cy="58.89" r="4.88"/>
                <circle class="cls-6" cx="444.84" cy="50.01" r="1.55"/>
                <circle class="cls-6" cx="453.77" cy="49.09" r="1.55"/>
                <circle class="cls-6" cx="451.33" cy="57.2" r="1.55"/>
              </g>
              <g>
                <path class="cls-3" d="M36.45,19.54s0-4.88,2.22-5.32,2.22,1.33,1.77,2.22-.96,2.22-.48,3.1,1.36,9.75,1.36,9.75c0,0-.44,4.88,0,6.65s1.77,7.54,3.55,10.64c1.77,3.1,3.1,6.65,1.33,10.64-1.77,3.99-7.98,4.88-9.75,5.76s-7.09,4.43-9.31,6.21-8.64,2.88-12.85-1.33-3.1-10.64.89-13.74,6.65-5.32,6.65-8.42-1.33-9.31-2.22-11.52c-.89-2.22-1.33-8.42-1.33-8.42l17.29-4.88.89-1.33Z"/>
                <path class="cls-6" d="M41.83,23.74c.24-.47.38-.99.38-1.54,0-1.96-1.69-3.55-3.77-3.55-1.43,0-2.68.75-3.31,1.86-.73-.86-1.85-1.41-3.11-1.41-2.03,0-3.7,1.43-3.95,3.28-.77-.91-1.99-1.51-3.36-1.51-1.93,0-3.56,1.16-4.05,2.75-.63-.34-1.37-.53-2.15-.53-2.33,0-4.21,1.69-4.21,3.77,0,1.36.81,2.55,2.01,3.21-.43.6-.68,1.33-.68,2.11,0,2.08,1.79,3.77,3.99,3.77,1.52,0,2.85-.81,3.52-1.99.76.69,1.78,1.11,2.91,1.11,1.96,0,3.6-1.27,4.07-2.99.77.75,1.83,1.21,3.02,1.21,2.06,0,3.76-1.4,4.13-3.24.67.63,1.55,1.02,2.51,1.02,2.08,0,3.77-1.79,3.77-3.99,0-1.4-.68-2.62-1.71-3.34Z"/>
              </g>
              <g>
                <path class="cls-3" d="M316.08,58.46s-1.5-4.64.48-5.74c1.97-1.1,2.52.59,2.37,1.57s-.23,2.4.5,3.1,4.29,8.86,4.29,8.86c0,0,1.07,4.78,2.04,6.33.97,1.55,4,6.63,6.64,9.04s4.99,5.38,4.53,9.72c-.46,4.34-6.1,7.09-7.52,8.48-1.42,1.39-5.39,6.39-6.96,8.76-1.57,2.37-7.34,5.39-12.64,2.68-5.3-2.72-6.22-9.17-3.37-13.35,2.85-4.18,4.7-7.1,3.75-10.06s-4.12-8.45-5.64-10.29c-1.52-1.84-3.85-7.61-3.85-7.61l14.96-9.94.44-1.54Z"/>
                <path class="cls-6" d="M322.49,60.81c.08-.52.06-1.05-.11-1.58-.6-1.86-2.69-2.86-4.67-2.22-1.36.44-2.32,1.54-2.58,2.78-.96-.6-2.2-.78-3.4-.39-1.93.62-3.08,2.49-2.76,4.33-1.01-.63-2.35-.82-3.66-.4-1.84.59-3.03,2.2-3.01,3.86-.7-.13-1.46-.09-2.21.15-2.21.71-3.49,2.9-2.85,4.88.42,1.29,1.55,2.18,2.9,2.44-.23.71-.24,1.47,0,2.22.64,1.98,2.86,3.04,4.95,2.36,1.45-.47,2.46-1.64,2.74-2.98.93.42,2.03.51,3.11.16,1.86-.6,3.04-2.31,2.96-4.09.96.48,2.12.59,3.25.23,1.96-.63,3.16-2.48,2.94-4.35.83.4,1.79.5,2.71.2,1.98-.64,3.04-2.86,2.36-4.95-.43-1.33-1.45-2.29-2.65-2.65Z"/>
              </g>
              <g>
                <path class="cls-3" d="M591.03,32.3s-2.62-4.11-.99-5.68,2.58-.07,2.69.92.38,2.38,1.26,2.87,6.39,7.49,6.39,7.49c0,0,2.24,4.35,3.57,5.61s5.54,5.4,8.7,7.07,6.19,3.94,6.83,8.26-4.11,8.4-5.13,10.1c-1.02,1.7-3.6,7.55-4.52,10.23-.92,2.69-5.74,7.07-11.56,5.78-5.81-1.29-8.33-7.31-6.63-12.07,1.7-4.76,2.75-8.06,1.09-10.68s-6.12-7.14-8.06-8.53c-1.94-1.39-5.64-6.39-5.64-6.39l11.97-13.4.03-1.6Z"/>
                <path class="cls-6" d="M597.82,32.95c-.05-.52-.21-1.03-.51-1.5-1.05-1.65-3.33-2.09-5.08-.97-1.21.77-1.85,2.07-1.8,3.35-1.08-.33-2.32-.2-3.39.48-1.71,1.09-2.35,3.19-1.57,4.89-1.14-.36-2.48-.2-3.64.54-1.63,1.04-2.37,2.89-1.94,4.5-.71.05-1.44.28-2.1.71-1.96,1.25-2.65,3.68-1.53,5.44.73,1.15,2.05,1.72,3.42,1.63-.04.74.14,1.49.56,2.15,1.12,1.76,3.53,2.22,5.39,1.04,1.29-.82,1.97-2.21,1.9-3.57,1.01.17,2.1-.02,3.05-.63,1.65-1.05,2.36-3,1.83-4.71,1.05.22,2.2.04,3.2-.6,1.73-1.1,2.43-3.2,1.75-4.95.9.18,1.86.03,2.67-.49,1.76-1.12,2.22-3.53,1.04-5.39-.75-1.18-1.98-1.85-3.23-1.9Z"/>
              </g>
            </g>
          </g>
        </g>
      </g>
    </g>
  </g>
</svg>