<svg width="46" height="51" viewBox="0 0 46 51" fill="none" xmlns="http://www.w3.org/2000/svg">
<path d="M45.2993 14.9019L43.6555 45.0659L38.483 46.9032L33.5186 48.6637L26.9433 51L18.4229 49.4918L11.3161 48.2304L5.84763 47.2597L0.368225 17.0956L7.03118 14.2602H7.03666L13.327 11.5948H13.3325L18.4503 9.41753L29.6666 11.71L37.3816 13.284L45.2993 14.9019Z" fill="#F2F2F2"/>
<path d="M2.56 17.6441C10.401 18.8726 19.3051 20.3259 26.5762 21.7903C32.3515 19.613 38.1323 17.4741 43.9624 15.4503C38.2419 17.8251 32.4721 20.0791 26.6968 22.3003C18.6311 20.8579 10.5764 19.3387 2.56 17.6441Z" fill="#1D1D1B"/>
<path d="M26.6694 50.0019L26.3954 22.0316H26.9433L26.6694 50.0019Z" fill="#1D1D1B"/>
<path d="M30.7242 15.5052L37.3817 13.284L29.6667 11.71L23.2941 13.8325H23.2887L13.3326 11.5948H13.3271L7.03674 14.2602L16.3956 16.1359L11.8751 17.6441L11.3162 48.2304L18.4229 49.4918V19.613L24.1763 17.6934L33.5187 19.5636V48.6637L38.483 46.9032L38.9981 17.3699L30.7242 15.5052Z" fill="#003E29"/>
<path d="M25.0256 15.4503C25.0256 15.4503 31.6009 8.32065 34.8885 5.57847C38.1761 2.83629 41.4857 6.46145 40.1049 9.58754C38.7241 12.7136 30.505 17.0956 30.505 17.0956L25.0256 15.4503Z" fill="#003E29"/>
<path d="M21.7379 15.9988C21.7379 15.9988 16.7845 6.66986 17.9187 3.7412C19.5461 -0.454337 23.3817 0.0941031 25.0255 1.19098C26.6693 2.28785 27.7652 13.805 26.6693 14.9019C25.5735 15.9988 21.7379 15.9988 21.7379 15.9988Z" fill="#003E29"/>
<path d="M16.8064 15.4503C16.8064 15.4503 11.327 18.1925 10.7791 19.2894C10.2312 20.3863 8.58734 31.355 8.58734 31.355L15.1626 30.8066L16.8064 19.5526L21.1626 17.0956" fill="#003E29"/>
</svg>
