<?xml version="1.0" encoding="UTF-8"?>
<svg id="Calque_2" data-name="Calque 2" xmlns="http://www.w3.org/2000/svg" xmlns:xlink="http://www.w3.org/1999/xlink" viewBox="0 0 150.38 194.69">
  <defs>
    <style>
      .cls-1 {
        fill: #d3997b;
      }

      .cls-2 {
        fill: #f1ee87;
      }

      .cls-3 {
        fill: #fff;
      }

      .cls-4 {
        fill: #d70008;
      }

      .cls-5 {
        fill: #ffcba7;
      }

      .cls-6 {
        fill: #ea858e;
      }

      .cls-7 {
        fill: #1d1d1b;
      }

      .cls-8 {
        fill: #0b0a1a;
      }

      .cls-9 {
        clip-path: url(#clippath);
      }
    </style>
    <clipPath id="clippath">
      <rect class="cls-5" x="53.87" y="133.74" width="39.04" height="22.85"/>
    </clipPath>
  </defs>
  <g id="Assets">
    <g id="Nutcracker">
      <path class="cls-7" d="M45.25,52.6s-24.36,15-27.85,35.01c-3.48,20,0,30.01-6.96,40.01s-10.44,0-10.44,5,6.96,25.01,76.57,25.01,76.57-20,73.09-25.01c-3.48-5-10.44-5-10.44-10s0-25.01-10.44-45.01-24.92-25.01-24.92-25.01h-58.62Z"/>
      <path class="cls-4" d="M73.39,145.51s-50.91,27.55-51.36,29.51c-.45,1.96,16.13,19.67,51.36,19.67s51.81-17.71,51.36-19.67c-.45-1.96-51.36-29.51-51.36-29.51Z"/>
      <g>
        <rect class="cls-5" x="53.87" y="133.74" width="39.04" height="22.85"/>
        <g class="cls-9">
          <path class="cls-1" d="M44.51,138.57h60.65s-16.36,16.73-31.77,17.02c-15.41.29-28.88-17.02-28.88-17.02Z"/>
        </g>
      </g>
      <path class="cls-5" d="M34.84,97.75s-4.41-6.9-10.17-5.99c-5.77.9-3.96,13.11.68,19.67,4.64,6.56,10.97,11.76,16.73,11.53,5.77-.23-7.24-25.21-7.24-25.21Z"/>
      <path class="cls-5" d="M113.53,97.75s4.41-6.9,10.17-5.99c5.77.9,3.96,13.11-.68,19.67-4.64,6.56-10.97,11.76-16.73,11.53-5.77-.23,7.24-25.21,7.24-25.21Z"/>
      <path class="cls-5" d="M30.81,82.41c1-22.29,19.6-40.11,42.58-40.11s41.59,17.81,42.58,40.11l-.09,4.52c-.63,8.79-2.54,28.02-7.41,35.59-6.41,9.94-16.67,29.02-35.08,29.02s-28.67-19.08-35.08-29.02c-4.88-7.57-6.78-26.82-7.42-35.6l-.09-4.51Z"/>
      <circle class="cls-6" cx="49.06" cy="107.45" r="9.72"/>
      <circle class="cls-6" cx="97.72" cy="107.2" r="9.72"/>
      <circle class="cls-7" cx="55.16" cy="98.52" r="4.03"/>
      <circle class="cls-7" cx="89.51" cy="98.52" r="4.03"/>
      <path class="cls-7" d="M31.45,100.09c-5.45-5.62-7.81-1.08-5.83,4.81.45,1.48.98,2.94,1.59,4.37-.7-1.39-1.29-2.83-1.75-4.32-.45-1.49-.82-3.03-.78-4.61.56-4.8,4.73-2.91,6.77-.24h0Z"/>
      <path class="cls-7" d="M117.28,99.58c2.04-2.66,6.21-4.55,6.77.24.04,1.59-.33,3.12-.78,4.61-.46,1.49-1.05,2.93-1.75,4.32,1.14-2.83,2.35-5.83,2.28-8.92-.47-4.65-4.48-2.6-6.52-.26h0Z"/>
      <path class="cls-7" d="M70.63,97.43c-1.06,3.74-2.84,8.92-3.47,12.7-.28,2.45-.53,6.04,2.09,7.29,1.28.4,2.73.23,4.05.04.25-.07.57-.12.7-.37-.12.26-.44.32-.69.4-11.82,2.83-4.33-14.69-2.68-20.06h0Z"/>
      <circle class="cls-3" cx="56.53" cy="96.92" r=".93"/>
      <circle class="cls-3" cx="91.51" cy="96.92" r=".93"/>
      <path class="cls-7" d="M62.48,88.54c.67-.82-.27-3.44-1.12-4.06-.94-.69-7.53.29-10.03.57-3.61.41-7.07,1.72-10.22,3.54l-1.64.95s22.22-.04,23-1Z"/>
      <path class="cls-7" d="M82.18,88.54c-.67-.82.27-3.44,1.12-4.06.94-.69,7.53.29,10.03.57,3.61.41,7.07,1.72,10.22,3.54l1.64.95s-22.22-.04-23-1Z"/>
      <path class="cls-7" d="M72.33,130.87c-4.25,0-7.97-.53-10.11-1.33.79,1.38,5,2.43,10.11,2.43s9.32-1.06,10.11-2.43c-2.14.8-5.86,1.33-10.11,1.33Z"/>
      <path class="cls-7" d="M74.85,123.44c0,5.35,17.4,6.69,24.09,2.68,6.69-4.02,8.03-13.38,6.69-14.72-.95-.95-4.02,12.05-10.71,12.05s-5.35-6.69-12.05-6.69-8.03,2.68-8.03,6.69Z"/>
      <path class="cls-7" d="M71.1,123.44c0,5.35-17.4,6.69-24.09,2.68-6.69-4.02-8.03-13.38-6.69-14.72.95-.95,4.02,12.05,10.71,12.05s5.35-6.69,12.05-6.69c6.69,0,8.03,2.68,8.03,6.69Z"/>
      <path class="cls-7" d="M41.24,70.1s-6.18,17.5-6.18,22.65,1.03,17.5,1.03,17.5l-3.09-5.15-4.08-26.57s-.04-20.8,12.32-8.44Z"/>
      <path class="cls-7" d="M107.14,70.1s6.04,16.47,6.04,21.62-1.03,17.5-1.03,17.5l3.09-5.15,4.08-26.57s3.26-25.95-12.18-7.41Z"/>
      <g>
        <path class="cls-8" d="M29.69,3.57c2.9-2.97,35.17-3.57,43.69-3.57s39.06.6,42.64,3.57c3.58,2.97-2.71,66.53-2.71,66.53l-41.19-8.24-39.13,3.09S26.79,6.54,29.69,3.57Z"/>
        <path class="cls-2" d="M32.59,70.35c0,.74.68,1.3,1.41,1.13,4.25-.97,17.98-3.67,39.3-3.67s35.19,2.7,39.46,3.67c.72.16,1.41-.39,1.41-1.13v-9.17s-15.95-4.36-40.79-4.36-40.79,4.17-40.79,4.17v9.36Z"/>
      </g>
      <polygon class="cls-2" points="50.39 158.13 96.39 158.13 92.91 156.2 92.91 153.55 53.87 153.55 53.87 156.2 50.39 158.13"/>
      <path class="cls-7" d="M61.72,138.06h20.38c.64,0,1.07.66.82,1.25l-9.93,23.23c-.31.72-1.32.73-1.64.02l-10.45-23.23c-.27-.59.17-1.26.82-1.26Z"/>
      <g>
        <path class="cls-2" d="M73.67,178.2c-1.03,0-25.21-.04-25.21-3.59s24.18-3.59,25.21-3.59,25.21.04,25.21,3.59-24.18,3.59-25.21,3.59ZM73.67,172.02c-14.87,0-23.76,1.55-24.22,2.62.46,1.01,9.34,2.56,24.22,2.56s23.6-1.52,24.2-2.59c-.6-1.07-9.46-2.59-24.2-2.59Z"/>
        <g>
          <circle cx="45.87" cy="174.61" r="3.09"/>
          <path class="cls-2" d="M45.87,178.2c-1.98,0-3.59-1.61-3.59-3.59s1.61-3.59,3.59-3.59,3.59,1.61,3.59,3.59-1.61,3.59-3.59,3.59ZM45.87,172.02c-1.43,0-2.59,1.16-2.59,2.59s1.16,2.59,2.59,2.59,2.59-1.16,2.59-2.59-1.16-2.59-2.59-2.59Z"/>
        </g>
        <g>
          <circle cx="101.47" cy="174.61" r="3.09"/>
          <path class="cls-2" d="M101.47,178.2c-1.98,0-3.59-1.61-3.59-3.59s1.61-3.59,3.59-3.59,3.59,1.61,3.59,3.59-1.61,3.59-3.59,3.59ZM101.47,172.02c-1.43,0-2.59,1.16-2.59,2.59s1.16,2.59,2.59,2.59,2.59-1.16,2.59-2.59-1.16-2.59-2.59-2.59Z"/>
        </g>
      </g>
      <g>
        <path class="cls-2" d="M73.67,187.47c-1.03,0-25.21-.04-25.21-3.59s24.18-3.59,25.21-3.59,25.21.04,25.21,3.59-24.18,3.59-25.21,3.59ZM73.67,181.29c-14.87,0-23.76,1.55-24.22,2.62.46,1.01,9.34,2.56,24.22,2.56s23.6-1.52,24.2-2.59c-.6-1.07-9.46-2.59-24.2-2.59Z"/>
        <g>
          <circle cx="45.87" cy="183.88" r="3.09"/>
          <path class="cls-2" d="M45.87,187.47c-1.98,0-3.59-1.61-3.59-3.59s1.61-3.59,3.59-3.59,3.59,1.61,3.59,3.59-1.61,3.59-3.59,3.59ZM45.87,181.29c-1.43,0-2.59,1.16-2.59,2.59s1.16,2.59,2.59,2.59,2.59-1.16,2.59-2.59-1.16-2.59-2.59-2.59Z"/>
        </g>
        <g>
          <circle cx="101.47" cy="183.88" r="3.09"/>
          <path class="cls-2" d="M101.47,187.47c-1.98,0-3.59-1.61-3.59-3.59s1.61-3.59,3.59-3.59,3.59,1.61,3.59,3.59-1.61,3.59-3.59,3.59ZM101.47,181.29c-1.43,0-2.59,1.16-2.59,2.59s1.16,2.59,2.59,2.59,2.59-1.16,2.59-2.59-1.16-2.59-2.59-2.59Z"/>
        </g>
      </g>
    </g>
  </g>
</svg>