<?xml version="1.0" encoding="UTF-8"?>
<svg id="Calque_2" data-name="Calque 2" xmlns="http://www.w3.org/2000/svg" xmlns:xlink="http://www.w3.org/1999/xlink" viewBox="0 0 159.56 142.78">
  <defs>
    <style>
      .cls-1 {
        fill: #181214;
      }

      .cls-2 {
        fill: #dcdcde;
      }

      .cls-3 {
        fill: #f7941f;
      }

      .cls-4 {
        fill: #d70008;
      }

      .cls-5 {
        fill: #f2f2f2;
      }

      .cls-6 {
        fill: #1d1d1b;
      }

      .cls-7 {
        clip-path: url(#clippath);
      }
    </style>
    <clipPath id="clippath">
      <path class="cls-5" d="M49.89,68.24S.45,94.99,0,96.9c-.44,1.9,15.66,19.1,49.88,19.1s50.32-17.2,49.88-19.1c-.44-1.9-49.88-28.66-49.88-28.66Z"/>
    </clipPath>
  </defs>
  <g id="Assets">
    <g id="Snowman">
      <g>
        <path class="cls-5" d="M49.89,68.24S.45,94.99,0,96.9c-.44,1.9,15.66,19.1,49.88,19.1s50.32-17.2,49.88-19.1c-.44-1.9-49.88-28.66-49.88-28.66Z"/>
        <g class="cls-7">
          <path class="cls-2" d="M21.56,80s7.65,10.87,28.33,10.87,29.67-11.87,29.67-11.87l-29.67-7.53-28.33,8.53Z"/>
        </g>
      </g>
      <circle class="cls-5" cx="49.89" cy="43" r="43"/>
      <circle class="cls-4" cx="25.79" cy="48.86" r="9.44"/>
      <circle class="cls-4" cx="73.05" cy="48.62" r="9.44"/>
      <path class="cls-6" d="M49.91,68.27c-13.19,0-17.17-12.71-17.21-12.84-.24-.79.21-1.63,1-1.87.79-.24,1.63.21,1.87,1,.14.45,3.41,10.71,14.34,10.71s14.26-10.23,14.29-10.34c.24-.79,1.09-1.23,1.87-.99.79.24,1.24,1.08.99,1.87-.04.12-3.98,12.46-17.16,12.46Z"/>
      <circle class="cls-1" cx="34.2" cy="37.6" r="7.4"/>
      <circle class="cls-3" cx="50.2" cy="48.6" r="6.23"/>
      <circle class="cls-1" cx="66.33" cy="37.6" r="7.4"/>
      <path class="cls-4" d="M96.55,65.64c-.06-2.85-1.94-6.27-7.57-6.27,0,0-6.41,24-39.41,23.94-33-.06-39.41-23.94-39.41-23.94-5.63,0-7.51,3.42-7.57,6.27-.06,2.85.06,21.09.06,22.8s-1.88,3.42,15.01,13.68c14.94,9.08,28.42,9.34,31.33,9.28.39,0,.77,0,1.16,0,2.91.06,16.38-.2,31.33-9.28,16.89-10.26,15.01-11.97,15.01-13.68s.12-19.95.06-22.8Z"/>
      <path class="cls-4" d="M53.37,81.7c-.8-1.46.13-3.28,1.78-3.52,4.09-.59,11.17-1.74,13.46-2.88,3.29-1.65,8.23-6.58,11.52-6.58s4.94,1.65,8.23,11.52c3.29,9.88,16.46,19.75,27.98,21.4,11.52,1.65,34.56,8.23,42.79,24.69,3.29,8.23-13.17-3.29-18.1,0s0,16.46-4.94,16.46-3.29-13.17-19.75-14.81c-16.46-1.65-16.46,0-26.33-4.94-8.64-4.32-31.16-31.35-36.64-41.33Z"/>
    </g>
  </g>
</svg>